<svg width="16" height="17" viewBox="0 0 16 17" fill="none" xmlns="http://www.w3.org/2000/svg">
<g id="Copyright" clip-path="url(#clip0_10_632)">
<path id="Vector" d="M6.71998 7.28362C6.75331 7.06362 6.82665 6.87029 6.91998 6.70362C7.01331 6.53695 7.14665 6.39695 7.31331 6.29029C7.47331 6.19029 7.67331 6.14362 7.91998 6.13695C8.07331 6.14362 8.21331 6.17029 8.33998 6.22362C8.47331 6.28362 8.59331 6.36362 8.68665 6.46362C8.77998 6.56362 8.85331 6.68362 8.91331 6.81695C8.97331 6.95029 8.99998 7.09695 9.00665 7.24362H10.2C10.1866 6.93029 10.1266 6.64362 10.0133 6.38362C9.89998 6.12362 9.74665 5.89695 9.54665 5.71029C9.34665 5.52362 9.10665 5.37695 8.82665 5.27029C8.54665 5.16362 8.23998 5.11695 7.89998 5.11695C7.46665 5.11695 7.08665 5.19029 6.76665 5.34362C6.44665 5.49695 6.17998 5.69695 5.96665 5.95695C5.75331 6.21695 5.59331 6.51695 5.49331 6.86362C5.39331 7.21029 5.33331 7.57029 5.33331 7.95695V8.13695C5.33331 8.52362 5.38665 8.88362 5.48665 9.23029C5.58665 9.57695 5.74665 9.87695 5.95998 10.1303C6.17331 10.3836 6.43998 10.5903 6.75998 10.737C7.07998 10.8836 7.45998 10.9636 7.89331 10.9636C8.20665 10.9636 8.49998 10.9103 8.77331 10.8103C9.04665 10.7103 9.28665 10.5703 9.49331 10.3903C9.69998 10.2103 9.86665 10.0036 9.98665 9.76362C10.1066 9.52362 10.18 9.27029 10.1866 8.99695H8.99331C8.98665 9.13695 8.95331 9.26362 8.89331 9.38362C8.83331 9.50362 8.75331 9.60362 8.65331 9.69029C8.55331 9.77695 8.43998 9.84362 8.30665 9.89029C8.17998 9.93695 8.04665 9.95029 7.90665 9.95695C7.66665 9.95029 7.46665 9.90362 7.31331 9.80362C7.14665 9.69695 7.01331 9.55695 6.91998 9.39029C6.82665 9.22362 6.75331 9.02362 6.71998 8.80362C6.68665 8.58362 6.66665 8.35695 6.66665 8.13695V7.95695C6.66665 7.72362 6.68665 7.50362 6.71998 7.28362ZM7.99998 1.37695C4.31998 1.37695 1.33331 4.36362 1.33331 8.04362C1.33331 11.7236 4.31998 14.7103 7.99998 14.7103C11.68 14.7103 14.6666 11.7236 14.6666 8.04362C14.6666 4.36362 11.68 1.37695 7.99998 1.37695ZM7.99998 13.377C5.05998 13.377 2.66665 10.9836 2.66665 8.04362C2.66665 5.10362 5.05998 2.71029 7.99998 2.71029C10.94 2.71029 13.3333 5.10362 13.3333 8.04362C13.3333 10.9836 10.94 13.377 7.99998 13.377Z" fill="#3B323A"/>
</g>
<defs>
<clipPath id="clip0_10_632">
<rect width="16" height="16" fill="white" transform="translate(0 0.0439453)"/>
</clipPath>
</defs>
</svg>
