<svg width="24" height="25" viewBox="0 0 24 25" fill="none" xmlns="http://www.w3.org/2000/svg">
<g id="instagram">
<path id="Vector" d="M17.34 5.50395C17.1027 5.50395 16.8707 5.57432 16.6733 5.70618C16.476 5.83804 16.3222 6.02545 16.2313 6.24473C16.1405 6.464 16.1168 6.70528 16.1631 6.93805C16.2094 7.17083 16.3236 7.38465 16.4915 7.55247C16.6593 7.7203 16.8731 7.83459 17.1059 7.88089C17.3387 7.92719 17.5799 7.90343 17.7992 7.8126C18.0185 7.72178 18.2059 7.56797 18.3378 7.37063C18.4696 7.17329 18.54 6.94128 18.54 6.70395C18.54 6.38569 18.4136 6.08046 18.1885 5.85542C17.9635 5.63037 17.6583 5.50395 17.34 5.50395ZM21.94 7.92395C21.9206 7.09424 21.7652 6.27335 21.48 5.49395C21.2257 4.82708 20.83 4.22322 20.32 3.72395C19.8248 3.21137 19.2196 2.81812 18.55 2.57395C17.7727 2.28011 16.9508 2.12116 16.12 2.10395C15.06 2.04395 14.72 2.04395 12 2.04395C9.28 2.04395 8.94 2.04395 7.88 2.10395C7.04915 2.12116 6.22734 2.28011 5.45 2.57395C4.78168 2.82059 4.17693 3.21351 3.68 3.72395C3.16743 4.21912 2.77418 4.82438 2.53 5.49395C2.23616 6.27129 2.07721 7.0931 2.06 7.92395C2 8.98395 2 9.32395 2 12.0439C2 14.7639 2 15.1039 2.06 16.1639C2.07721 16.9948 2.23616 17.8166 2.53 18.5939C2.77418 19.2635 3.16743 19.8688 3.68 20.3639C4.17693 20.8744 4.78168 21.2673 5.45 21.5139C6.22734 21.8078 7.04915 21.9667 7.88 21.9839C8.94 22.0439 9.28 22.0439 12 22.0439C14.72 22.0439 15.06 22.0439 16.12 21.9839C16.9508 21.9667 17.7727 21.8078 18.55 21.5139C19.2196 21.2698 19.8248 20.8765 20.32 20.3639C20.8322 19.8665 21.2283 19.2621 21.48 18.5939C21.7652 17.8145 21.9206 16.9936 21.94 16.1639C21.94 15.1039 22 14.7639 22 12.0439C22 9.32395 22 8.98395 21.94 7.92395ZM20.14 16.0439C20.1327 16.6787 20.0178 17.3076 19.8 17.9039C19.6403 18.3391 19.3839 18.7324 19.05 19.0539C18.7256 19.3845 18.3332 19.6404 17.9 19.8039C17.3037 20.0217 16.6748 20.1367 16.04 20.1439C15.04 20.1939 14.67 20.2039 12.04 20.2039C9.41 20.2039 9.04 20.2039 8.04 20.1439C7.38089 20.1563 6.72459 20.0548 6.1 19.8439C5.68578 19.672 5.31136 19.4167 5 19.0939C4.66809 18.7727 4.41484 18.3791 4.26 17.9439C4.01586 17.3391 3.88044 16.6959 3.86 16.0439C3.86 15.0439 3.8 14.6739 3.8 12.0439C3.8 9.41395 3.8 9.04395 3.86 8.04395C3.86448 7.395 3.98295 6.75189 4.21 6.14395C4.38605 5.72186 4.65627 5.3456 5 5.04395C5.30381 4.70011 5.67929 4.42704 6.1 4.24395C6.70955 4.02399 7.352 3.90902 8 3.90395C9 3.90395 9.37 3.84395 12 3.84395C14.63 3.84395 15 3.84395 16 3.90395C16.6348 3.91123 17.2637 4.02619 17.86 4.24395C18.3144 4.4126 18.7223 4.68679 19.05 5.04395C19.3777 5.35112 19.6338 5.72668 19.8 6.14395C20.0223 6.75288 20.1373 7.39573 20.14 8.04395C20.19 9.04395 20.2 9.41395 20.2 12.0439C20.2 14.6739 20.19 15.0439 20.14 16.0439ZM12 6.91395C10.9858 6.91592 9.99496 7.21847 9.15265 7.78336C8.31035 8.34826 7.65438 9.15014 7.26763 10.0877C6.88089 11.0253 6.78072 12.0564 6.97979 13.0509C7.17886 14.0453 7.66824 14.9585 8.38608 15.6749C9.10392 16.3914 10.018 16.879 11.0129 17.0761C12.0077 17.2732 13.0387 17.1711 13.9755 16.7825C14.9123 16.3939 15.7129 15.7364 16.2761 14.893C16.8394 14.0496 17.14 13.0581 17.14 12.0439C17.1413 11.3691 17.0092 10.7006 16.7512 10.0769C16.4933 9.45325 16.1146 8.88675 15.6369 8.41C15.1592 7.93324 14.5919 7.55562 13.9678 7.29887C13.3436 7.04213 12.6749 6.91131 12 6.91395ZM12 15.3739C11.3414 15.3739 10.6976 15.1786 10.15 14.8127C9.60234 14.4468 9.17552 13.9268 8.92348 13.3183C8.67144 12.7098 8.6055 12.0403 8.73398 11.3943C8.86247 10.7483 9.17963 10.155 9.64533 9.68928C10.111 9.22357 10.7044 8.90642 11.3503 8.77793C11.9963 8.64944 12.6659 8.71539 13.2743 8.96743C13.8828 9.21947 14.4029 9.64628 14.7688 10.1939C15.1347 10.7415 15.33 11.3853 15.33 12.0439C15.33 12.4812 15.2439 12.9143 15.0765 13.3183C14.9092 13.7223 14.6639 14.0894 14.3547 14.3986C14.0454 14.7078 13.6784 14.9531 13.2743 15.1205C12.8703 15.2878 12.4373 15.3739 12 15.3739Z" fill="#3B323A"/>
</g>
</svg>
