<svg width="36" height="37" viewBox="0 0 36 37" fill="none" xmlns="http://www.w3.org/2000/svg">
<g id="Quote Right">
<path id="Vector" d="M23.4932 18.8496H28.9863V23.2441C28.9863 25.668 27.0157 27.6387 24.5918 27.6387H24.0425C23.826 27.6382 23.6114 27.6804 23.4112 27.7631C23.2111 27.8457 23.0292 27.9671 22.8761 28.1202C22.7229 28.2733 22.6016 28.4552 22.5189 28.6554C22.4363 28.8556 22.394 29.0701 22.3945 29.2867V32.5826C22.394 32.7991 22.4363 33.0136 22.5189 33.2138C22.6016 33.414 22.7229 33.5959 22.8761 33.749C23.0292 33.9021 23.2111 34.0235 23.4112 34.1062C23.6114 34.1888 23.826 34.2311 24.0425 34.2305H24.5918C30.6617 34.2305 35.5781 29.3141 35.5781 23.2442V6.76465C35.5781 4.94503 34.1018 3.46875 32.2822 3.46875H23.4932C21.6735 3.46875 20.1973 4.94503 20.1973 6.76465V15.5537C20.1973 17.3733 21.6735 18.8496 23.4932 18.8496ZM3.71777 18.8496H9.21094V23.2441C9.21094 25.668 7.24029 27.6387 4.81641 27.6387H4.26712C4.05056 27.6382 3.83603 27.6804 3.63585 27.7631C3.43568 27.8457 3.2538 27.9671 3.10067 28.1202C2.94753 28.2733 2.82616 28.4552 2.74353 28.6554C2.66089 28.8556 2.61862 29.0701 2.61914 29.2867V32.5826C2.61862 32.7991 2.66089 33.0136 2.74353 33.2138C2.82616 33.414 2.94753 33.5959 3.10067 33.749C3.2538 33.9021 3.43568 34.0235 3.63585 34.1062C3.83603 34.1888 4.05056 34.2311 4.26712 34.2305H4.81641C10.8863 34.2305 15.8027 29.3141 15.8027 23.2442V6.76465C15.8027 4.94503 14.3265 3.46875 12.5068 3.46875H3.71777C1.89816 3.46875 0.421875 4.94503 0.421875 6.76465V15.5537C0.421875 17.3733 1.89816 18.8496 3.71777 18.8496Z" fill="#3B323A"/>
</g>
</svg>
