<svg width="36" height="37" viewBox="0 0 36 37" fill="none" xmlns="http://www.w3.org/2000/svg">
<g id="Sparkle">
<path id="Vector" d="M28.6875 7.59961C28.5383 7.59961 28.3953 7.54035 28.2898 7.43486C28.1843 7.32937 28.125 7.18629 28.125 7.03711V5.91211C28.125 5.76293 28.1843 5.61985 28.2898 5.51436C28.3953 5.40887 28.5383 5.34961 28.6875 5.34961C28.8367 5.34961 28.9798 5.40887 29.0853 5.51436C29.1908 5.61985 29.25 5.76293 29.25 5.91211V7.03711C29.25 7.18629 29.1908 7.32937 29.0853 7.43486C28.9798 7.54035 28.8367 7.59961 28.6875 7.59961ZM27.5625 8.72461H26.4375C26.2883 8.72461 26.1453 8.66535 26.0398 8.55986C25.9343 8.45437 25.875 8.31129 25.875 8.16211C25.875 8.01293 25.9343 7.86985 26.0398 7.76436C26.1453 7.65887 26.2883 7.59961 26.4375 7.59961H27.5625C27.7117 7.59961 27.8548 7.65887 27.9603 7.76436C28.0658 7.86985 28.125 8.01293 28.125 8.16211C28.125 8.31129 28.0658 8.45437 27.9603 8.55986C27.8548 8.66535 27.7117 8.72461 27.5625 8.72461ZM28.6875 10.9746C28.5383 10.9746 28.3953 10.9153 28.2898 10.8099C28.1843 10.7044 28.125 10.5613 28.125 10.4121V9.28711C28.125 9.13793 28.1843 8.99485 28.2898 8.88936C28.3953 8.78387 28.5383 8.72461 28.6875 8.72461C28.8367 8.72461 28.9798 8.78387 29.0853 8.88936C29.1908 8.99485 29.25 9.13793 29.25 9.28711V10.4121C29.25 10.5613 29.1908 10.7044 29.0853 10.8099C28.9798 10.9153 28.8367 10.9746 28.6875 10.9746ZM30.9375 8.72461H29.8125C29.6633 8.72461 29.5203 8.66535 29.4148 8.55986C29.3093 8.45437 29.25 8.31129 29.25 8.16211C29.25 8.01293 29.3093 7.86985 29.4148 7.76436C29.5203 7.65887 29.6633 7.59961 29.8125 7.59961H30.9375C31.0867 7.59961 31.2298 7.65887 31.3353 7.76436C31.4408 7.86985 31.5 8.01293 31.5 8.16211C31.5 8.31129 31.4408 8.45437 31.3353 8.55986C31.2298 8.66535 31.0867 8.72461 30.9375 8.72461ZM8.43751 27.8496C8.28833 27.8496 8.14526 27.7903 8.03977 27.6849C7.93428 27.5794 7.87501 27.4363 7.87501 27.2871V26.1621C7.87501 26.0129 7.93428 25.8699 8.03977 25.7644C8.14526 25.6589 8.28833 25.5996 8.43751 25.5996C8.5867 25.5996 8.72977 25.6589 8.83526 25.7644C8.94075 25.8699 9.00001 26.0129 9.00001 26.1621V27.2871C9.00001 27.4363 8.94075 27.5794 8.83526 27.6849C8.72977 27.7903 8.5867 27.8496 8.43751 27.8496ZM7.31251 28.9746H6.18751C6.03833 28.9746 5.89526 28.9153 5.78977 28.8099C5.68428 28.7044 5.62501 28.5613 5.62501 28.4121C5.62501 28.2629 5.68428 28.1199 5.78977 28.0144C5.89526 27.9089 6.03833 27.8496 6.18751 27.8496H7.31251C7.4617 27.8496 7.60477 27.9089 7.71026 28.0144C7.81575 28.1199 7.87501 28.2629 7.87501 28.4121C7.87501 28.5613 7.81575 28.7044 7.71026 28.8099C7.60477 28.9153 7.4617 28.9746 7.31251 28.9746ZM8.43751 31.2246C8.28833 31.2246 8.14526 31.1653 8.03977 31.0599C7.93428 30.9544 7.87501 30.8113 7.87501 30.6621V29.5371C7.87501 29.3879 7.93428 29.2449 8.03977 29.1394C8.14526 29.0339 8.28833 28.9746 8.43751 28.9746C8.5867 28.9746 8.72977 29.0339 8.83526 29.1394C8.94075 29.2449 9.00001 29.3879 9.00001 29.5371V30.6621C9.00001 30.8113 8.94075 30.9544 8.83526 31.0599C8.72977 31.1653 8.5867 31.2246 8.43751 31.2246ZM10.6875 28.9746H9.56251C9.41333 28.9746 9.27026 28.9153 9.16477 28.8099C9.05928 28.7044 9.00001 28.5613 9.00001 28.4121C9.00001 28.2629 9.05928 28.1199 9.16477 28.0144C9.27026 27.9089 9.41333 27.8496 9.56251 27.8496H10.6875C10.8367 27.8496 10.9798 27.9089 11.0853 28.0144C11.1908 28.1199 11.25 28.2629 11.25 28.4121C11.25 28.5613 11.1908 28.7044 11.0853 28.8099C10.9798 28.9153 10.8367 28.9746 10.6875 28.9746ZM20.25 33.4746C20.1079 33.475 19.9708 33.4216 19.8665 33.325C19.7621 33.2285 19.6982 33.0961 19.6875 32.9543C19.656 32.5397 18.8061 22.7691 8.87401 20.523C8.74918 20.4952 8.63757 20.4256 8.55758 20.3258C8.4776 20.226 8.43401 20.1019 8.43401 19.974C8.43401 19.8461 8.4776 19.7221 8.55758 19.6223C8.63757 19.5225 8.74918 19.4529 8.87401 19.425C18.8269 17.175 19.6796 7.09673 19.687 6.9938C19.6979 6.85215 19.762 6.71988 19.8665 6.62357C19.9709 6.52726 20.1079 6.47405 20.25 6.47461C20.3923 6.47422 20.5294 6.52774 20.6337 6.62438C20.7381 6.72103 20.802 6.85363 20.8125 6.99548C20.844 7.41005 21.694 17.1807 31.626 19.4267C31.7508 19.4546 31.8625 19.5242 31.9424 19.624C32.0224 19.7238 32.066 19.8478 32.066 19.9757C32.066 20.1036 32.0224 20.2277 31.9424 20.3275C31.8625 20.4273 31.7508 20.4969 31.626 20.5247C21.6731 22.7747 20.8204 32.853 20.8131 32.956C20.802 33.0975 20.7378 33.2297 20.6334 33.3259C20.5289 33.422 20.392 33.4752 20.25 33.4746ZM11.025 19.9746C16.9735 22.0975 19.3337 27.0357 20.25 30.1485C21.1663 27.0357 23.5266 22.0975 29.475 19.9746C23.5266 17.8517 21.1663 12.9135 20.25 9.80067C19.3337 12.9135 16.9735 17.8517 11.025 19.9746ZM5.62501 16.5996C5.48367 16.6001 5.34731 16.5474 5.24308 16.4519C5.13885 16.3564 5.07439 16.2252 5.06251 16.0844C4.93303 15.2111 4.52259 14.4039 3.89332 13.7848C3.26406 13.1656 2.45022 12.7684 1.57501 12.6531C1.44724 12.6278 1.3322 12.559 1.24952 12.4584C1.16684 12.3577 1.12164 12.2315 1.12164 12.1013C1.12164 11.9711 1.16684 11.8448 1.24952 11.7442C1.3322 11.6436 1.44724 11.5748 1.57501 11.5495C2.44846 11.4298 3.25985 11.031 3.88829 10.4127C4.51673 9.79442 4.9286 8.98962 5.06251 8.11823C5.07348 7.97701 5.13732 7.84512 5.24128 7.74892C5.34525 7.65271 5.48168 7.59927 5.62333 7.59927C5.76497 7.59927 5.90141 7.65271 6.00537 7.74892C6.10933 7.84512 6.17317 7.97701 6.18414 8.11823C6.31362 8.99146 6.72406 9.79872 7.35333 10.4178C7.98259 11.037 8.79643 11.4342 9.67164 11.5495C9.79941 11.5748 9.91445 11.6436 9.99713 11.7442C10.0798 11.8448 10.125 11.9711 10.125 12.1013C10.125 12.2315 10.0798 12.3577 9.99713 12.4584C9.91445 12.559 9.79941 12.6278 9.67164 12.6531C8.79819 12.7728 7.9868 13.1716 7.35836 13.7899C6.72992 14.4082 6.31806 15.213 6.18414 16.0844C6.17231 16.2246 6.10833 16.3554 6.00481 16.4508C5.9013 16.5461 5.76578 16.5993 5.62501 16.5996ZM3.42676 12.0996C4.36846 12.576 5.13722 13.3356 5.62501 14.2714C6.1128 13.3356 6.88156 12.576 7.82326 12.0996C6.88156 11.6232 6.1128 10.8637 5.62501 9.9278C5.13722 10.8637 4.36846 11.6232 3.42676 12.0996ZM30.375 32.3496C30.2337 32.3501 30.0973 32.2974 29.9931 32.2019C29.8889 32.1064 29.8244 31.9752 29.8125 31.8344C29.6829 30.9612 29.2725 30.154 28.6432 29.5349C28.014 28.9158 27.2002 28.5185 26.325 28.4031C26.1972 28.3778 26.0822 28.309 25.9995 28.2084C25.9168 28.1077 25.8716 27.9815 25.8716 27.8513C25.8716 27.7211 25.9168 27.5948 25.9995 27.4942C26.0822 27.3936 26.1972 27.3248 26.325 27.2995C27.1985 27.1798 28.0099 26.7811 28.6384 26.1628C29.2668 25.5445 29.6787 24.7397 29.8125 23.8682C29.8235 23.727 29.8873 23.5951 29.9913 23.4989C30.0952 23.4027 30.2317 23.3493 30.3733 23.3493C30.515 23.3493 30.6514 23.4027 30.7554 23.4989C30.8593 23.5951 30.9232 23.727 30.9341 23.8682C31.0637 24.7414 31.4742 25.5486 32.1034 26.1677C32.7327 26.7868 33.5465 27.1841 34.4216 27.2995C34.5494 27.3248 34.6644 27.3936 34.7471 27.4942C34.8298 27.5948 34.875 27.7211 34.875 27.8513C34.875 27.9815 34.8298 28.1077 34.7471 28.2084C34.6644 28.309 34.5494 28.3778 34.4216 28.4031C33.5482 28.5228 32.7367 28.9214 32.1083 29.5398C31.4798 30.1581 31.068 30.9629 30.9341 31.8344C30.9223 31.9746 30.8583 32.1054 30.7548 32.2008C30.6513 32.2962 30.5158 32.3493 30.375 32.3496ZM28.1768 27.8496C29.1185 28.326 29.8872 29.0856 30.375 30.0214C30.8628 29.0856 31.6316 28.326 32.5733 27.8496C31.6316 27.3732 30.8628 26.6137 30.375 25.6778C29.8872 26.6137 29.1185 27.3732 28.1768 27.8496Z" fill="#3B323A"/>
</g>
</svg>
