<svg width="24" height="25" viewBox="0 0 24 25" fill="none" xmlns="http://www.w3.org/2000/svg">
<g id="twitter">
<path id="Vector" d="M22.9912 3.99415C22.9913 3.81752 22.9446 3.64401 22.8558 3.4913C22.7671 3.33858 22.6394 3.21212 22.4859 3.12478C22.3324 3.03745 22.1584 2.99236 21.9818 2.99412C21.8052 2.99587 21.6322 3.0444 21.4804 3.13477C20.8951 3.48316 20.265 3.74996 19.6074 3.92777C18.6684 3.122 17.4708 2.68107 16.2334 2.68558C14.876 2.68714 13.5723 3.21617 12.5976 4.16096C11.623 5.10575 11.0536 6.39234 11.0098 7.74906C8.33378 7.32232 5.90843 5.92559 4.19625 3.8252C4.09308 3.70004 3.96133 3.60152 3.81211 3.53795C3.66288 3.47438 3.50056 3.44763 3.33883 3.45995C3.17719 3.47326 3.02122 3.52574 2.88442 3.61286C2.74762 3.69998 2.63409 3.81911 2.55367 3.95995C2.1412 4.67976 1.9043 5.48671 1.86222 6.31526C1.82014 7.14381 1.97406 7.9706 2.31148 8.7285L2.30953 8.73045C2.15788 8.82386 2.03272 8.95461 1.94603 9.1102C1.85935 9.26579 1.81403 9.44102 1.81441 9.61913C1.81257 9.76606 1.82139 9.91293 1.84078 10.0586C1.94292 11.3168 2.50056 12.4946 3.40914 13.3711C3.3475 13.4885 3.30988 13.617 3.29848 13.7492C3.28708 13.8813 3.30212 14.0144 3.34273 14.1406C3.73884 15.3748 4.58123 16.4167 5.70504 17.0625C4.56328 17.504 3.33046 17.6579 2.11519 17.5107C1.89026 17.4825 1.66242 17.5316 1.46904 17.6499C1.27566 17.7681 1.12822 17.9486 1.0509 18.1617C0.973592 18.3748 0.970999 18.6079 1.04355 18.8227C1.1161 19.0374 1.25949 19.2212 1.45019 19.3437C3.54028 20.6899 5.97387 21.4056 8.45996 21.4053C11.2792 21.437 14.0299 20.5361 16.2842 18.8427C18.5385 17.1494 20.1699 14.7585 20.9248 12.042C21.2778 10.8586 21.4581 9.63042 21.46 8.39551C21.46 8.33008 21.46 8.2627 21.459 8.19532C21.9811 7.63225 22.3855 6.97062 22.6486 6.24922C22.9117 5.52781 23.0282 4.76114 22.9912 3.99415ZM19.6845 7.20606C19.5194 7.40141 19.4358 7.65286 19.4511 7.90821C19.4609 8.07321 19.4599 8.23921 19.4599 8.39551C19.4579 9.43905 19.3049 10.4768 19.0058 11.4766C18.3893 13.788 17.015 15.8256 15.1029 17.2632C13.1908 18.7007 10.8516 19.455 8.45996 19.4053C7.60084 19.4055 6.74468 19.3046 5.90918 19.1045C6.97459 18.7612 7.97077 18.2318 8.85156 17.541C9.01378 17.4133 9.13251 17.2385 9.19145 17.0406C9.25038 16.8427 9.24664 16.6314 9.18073 16.4358C9.11483 16.2401 8.98999 16.0696 8.82334 15.9477C8.65669 15.8258 8.4564 15.7584 8.24996 15.7549C7.41879 15.742 6.62509 15.4069 6.03609 14.8203C6.18551 14.792 6.33395 14.7568 6.48141 14.7149C6.69742 14.6534 6.88645 14.521 7.01807 14.339C7.14969 14.157 7.21623 13.936 7.20698 13.7116C7.19773 13.4872 7.11324 13.2725 6.96709 13.1019C6.82095 12.9314 6.62167 12.815 6.40133 12.7715C5.91887 12.6762 5.46487 12.471 5.07464 12.1717C4.68441 11.8724 4.36845 11.4872 4.15133 11.0459C4.33206 11.0706 4.51394 11.0859 4.69625 11.0918C4.91283 11.0951 5.12484 11.0294 5.30162 10.9042C5.47841 10.779 5.6108 10.6009 5.67965 10.3955C5.74563 10.1883 5.74223 9.96518 5.66998 9.76004C5.59772 9.55491 5.46055 9.37893 5.27926 9.25879C4.83941 8.96576 4.4791 8.56821 4.23061 8.10175C3.98213 7.63528 3.85322 7.11447 3.85543 6.58595C3.85543 6.51955 3.85738 6.45314 3.86129 6.38771C6.10255 8.47797 9.00961 9.71016 12.0703 9.8672C12.2248 9.87329 12.3786 9.84419 12.5202 9.7821C12.6618 9.72001 12.7875 9.62656 12.8877 9.5088C12.9869 9.3899 13.0571 9.24961 13.0928 9.09896C13.1286 8.94831 13.1289 8.79142 13.0937 8.64064C13.0365 8.40201 13.0073 8.15751 13.0068 7.91212C13.0077 7.05666 13.3479 6.23649 13.9528 5.63159C14.5577 5.02668 15.3779 4.68645 16.2334 4.68555C16.6735 4.68437 17.1091 4.77445 17.5127 4.9501C17.9162 5.12575 18.279 5.38315 18.5781 5.70606C18.6934 5.83014 18.8386 5.92266 18.9998 5.9748C19.161 6.02694 19.3328 6.03697 19.499 6.00395C19.9097 5.92401 20.3146 5.81634 20.7109 5.68169C20.4406 6.23466 20.0952 6.74764 19.6845 7.20606Z" fill="black"/>
</g>
</svg>
